<svg width="269" height="269" viewBox="0 0 269 269" fill="none" xmlns="http://www.w3.org/2000/svg">
<path d="M134.439 0C60.3124 0 0 60.3098 0 134.439C0 208.569 60.3097 268.879 134.439 268.879C208.572 268.879 268.881 208.569 268.881 134.439C268.881 60.3098 208.572 0 134.439 0ZM82.5173 248.996V177.577H179.547V251.817H179.657C165.614 257.247 150.374 260.256 134.439 260.256C115.931 260.254 98.3607 256.204 82.5173 248.996ZM179.547 138.75V168.955H82.5173V138.75H179.547ZM188.172 248.177V177.577H216.552V168.955H188.172V138.75H234.29V130.128H24.9964V138.75H73.8951V168.955H48.0554V177.577H73.8951V244.688C35.0224 223.256 8.62492 181.878 8.62492 134.439C8.62492 65.0628 65.0654 8.62222 134.442 8.62222C203.819 8.62222 260.259 65.0628 260.259 134.439C260.259 184.602 230.741 227.985 188.172 248.177Z" fill="white"/>
<path d="M154.812 51.9316H108.368V60.5539H145.268L142.738 85.4748H93.6104V94.097H164.8V85.4748H151.406L154.812 51.9316Z" fill="white"/>
</svg>
